<svg version="1.1" id="Layer_1" xmlns="http://www.w3.org/2000/svg" xmlns:xlink="http://www.w3.org/1999/xlink" x="0px" y="0px"
	 width="100%" viewBox="0 0 1458 1418" enable-background="new 0 0 1458 1418" xml:space="preserve">
<path fill="#000000" opacity="1.000000" stroke="none" 
	d="
M974.000000,1419.000000 
	C649.333374,1419.000000 325.166779,1419.000000 1.000131,1419.000000 
	C1.000087,946.333496 1.000087,473.666962 1.000044,1.000321 
	C486.999756,1.000214 972.999512,1.000214 1458.999512,1.000107 
	C1458.999634,473.666351 1458.999634,946.332703 1458.999756,1418.999512 
	C1297.500000,1419.000000 1136.000000,1419.000000 974.000000,1419.000000 
M1073.500000,914.000000 
	C1052.852295,913.114441 1032.060181,916.136169 1011.542664,911.965271 
	C995.990051,908.803650 983.197937,900.681519 973.255188,888.510681 
	C961.136658,873.676453 957.103516,855.855408 957.084961,837.249146 
	C956.934021,685.763733 957.000000,534.278076 957.000000,382.792511 
	C957.000000,380.878601 957.000000,378.964722 957.000000,377.361450 
	C905.872803,377.361450 855.470154,377.361450 804.672485,377.361450 
	C804.672485,407.461060 804.672485,437.199860 804.672485,467.000000 
	C763.112976,467.000000 721.951355,467.074463 680.790771,466.896393 
	C676.164856,466.876373 674.877563,468.089661 674.894653,472.761108 
	C675.067505,519.922668 675.000000,567.085083 675.000000,614.247253 
	C675.000000,615.702148 675.000000,617.157104 675.000000,618.994995 
	C738.769653,618.994995 802.142029,618.994995 866.660645,618.994995 
	C863.397522,621.791870 860.981995,623.859070 858.569946,625.930298 
	C851.239441,632.225037 843.966675,638.588623 836.566345,644.800049 
	C827.197571,652.663757 817.769348,660.458374 808.270020,668.163513 
	C805.542664,670.375854 804.924377,672.964478 804.928162,676.358521 
	C805.020020,759.517212 805.003418,842.675964 804.996643,925.834717 
	C804.995544,939.316162 804.876770,952.732239 807.886841,966.074951 
	C812.200378,985.195496 820.044434,1002.374634 833.374573,1016.836914 
	C844.878418,1029.317505 858.653625,1038.504395 874.317261,1045.101807 
	C887.237610,1050.543701 900.633789,1054.705078 914.509277,1054.809326 
	C974.000244,1055.256348 1033.496582,1055.001465 1092.990845,1054.989868 
	C1094.261230,1054.989624 1095.531616,1054.839111 1096.714600,1054.764038 
	C1096.714600,1007.692688 1096.714600,960.957092 1096.714600,914.000000 
	C1089.120972,914.000000 1081.810425,914.000000 1073.500000,914.000000 
M491.714020,377.003876 
	C491.142700,378.434753 490.079193,379.863586 490.073212,381.296783 
	C489.971161,405.795593 490.000000,430.294983 490.000000,454.794220 
	C490.000000,458.747162 490.000000,462.700073 490.000000,467.038452 
	C446.830902,467.038452 404.091736,467.038452 361.221893,467.038452 
	C361.221893,517.842468 361.221893,568.246521 361.221893,619.052734 
	C424.475830,619.052734 487.509369,619.052734 551.863037,619.052734 
	C544.651855,625.010742 538.381104,630.118652 532.190430,635.321960 
	C519.302490,646.154236 506.471252,657.054016 493.582031,667.884766 
	C491.035431,670.024719 489.897400,672.380554 489.902649,675.940247 
	C490.027924,760.604126 490.029022,845.268250 489.967102,929.932312 
	C489.958313,941.945068 490.410706,953.829041 492.903717,965.676392 
	C497.090118,985.571472 505.616882,1003.099548 519.485962,1017.987915 
	C532.327515,1031.773193 547.908325,1041.657104 565.574463,1047.586426 
	C576.493958,1051.251343 588.165771,1054.542480 599.538879,1054.675781 
	C658.862305,1055.370972 718.198120,1055.001709 777.529663,1054.990234 
	C778.963013,1054.989868 780.396301,1054.843018 781.697754,1054.771729 
	C781.697754,1007.662781 781.697754,960.924988 781.697754,914.000000 
	C761.581238,914.000000 741.765991,914.079773 721.952026,913.954102 
	C715.537292,913.913452 709.077332,913.723633 702.722168,912.929077 
	C682.464661,910.396240 666.584595,900.562134 654.945557,883.721741 
	C645.121643,869.507568 642.136780,853.303162 642.115173,836.674561 
	C641.918701,685.512756 642.000000,534.350586 642.000000,383.188538 
	C642.000000,381.239166 642.000000,379.289825 642.000000,377.000244 
	C591.931152,377.000244 542.305969,377.000244 491.714020,377.003876 
M1427.000000,271.500031 
	C1427.000000,292.592224 1427.000000,313.684418 1427.000000,334.716644 
	C1431.971924,334.716644 1436.377808,334.716644 1440.726807,334.716644 
	C1440.726807,295.036713 1440.726807,255.640747 1440.726807,216.000076 
	C1435.650513,216.000076 1430.825684,215.770111 1426.047729,216.141891 
	C1424.636597,216.251694 1422.709961,217.780807 1422.124146,219.136749 
	C1418.570068,227.363068 1415.370605,235.741653 1411.987427,244.042816 
	C1404.674194,261.987701 1397.349976,279.928314 1389.966675,297.844421 
	C1387.847534,302.986725 1385.511353,308.039612 1383.274658,313.133484 
	C1382.840088,312.980469 1382.405518,312.827454 1381.970947,312.674438 
	C1368.764160,280.450684 1355.557373,248.226929 1342.443115,216.228973 
	C1336.542236,216.228973 1330.933716,216.228973 1325.218628,216.228973 
	C1325.218628,255.854401 1325.218628,295.250549 1325.218628,334.779297 
	C1329.843506,334.779297 1334.247681,334.779297 1339.205078,334.779297 
	C1339.205078,306.085785 1339.205078,277.608582 1339.205078,249.131348 
	C1342.226074,253.128723 1344.199097,257.360504 1345.951782,261.681702 
	C1354.677368,283.194855 1363.411377,304.705109 1372.000854,326.272766 
	C1375.452881,334.940735 1375.288086,335.006226 1384.814087,335.000183 
	C1386.460449,334.999115 1388.106812,335.000000 1389.670288,335.000000 
	C1401.701294,305.748230 1413.619141,276.771301 1425.536987,247.794388 
	C1426.024658,247.931335 1426.512329,248.068283 1427.000000,248.205231 
	C1427.000000,255.636841 1427.000000,263.068451 1427.000000,271.500031 
M1214.000000,222.516190 
	C1214.000000,224.950027 1214.000000,227.383865 1214.000000,230.193451 
	C1226.660156,230.193451 1238.736450,230.193451 1251.195557,230.193451 
	C1251.195557,265.329590 1251.195557,300.067261 1251.195557,334.700500 
	C1256.335083,334.700500 1261.074219,334.700500 1266.201172,334.700500 
	C1266.201172,299.665405 1266.201172,264.928375 1266.201172,229.797424 
	C1278.670776,229.797424 1290.748047,229.797424 1302.695190,229.797424 
	C1302.695190,224.985245 1302.695190,220.578964 1302.695190,216.304321 
	C1272.986084,216.304321 1243.582764,216.304321 1214.000000,216.304321 
	C1214.000000,218.256943 1214.000000,219.906281 1214.000000,222.516190 
z"/>
<path fill="#FFFFFF" opacity="1.000000" stroke="none" 
	d="
M1074.000000,914.000000 
	C1081.810425,914.000000 1089.120972,914.000000 1096.714600,914.000000 
	C1096.714600,960.957092 1096.714600,1007.692688 1096.714600,1054.764038 
	C1095.531616,1054.839111 1094.261230,1054.989624 1092.990845,1054.989868 
	C1033.496582,1055.001465 974.000244,1055.256348 914.509277,1054.809326 
	C900.633789,1054.705078 887.237610,1050.543701 874.317261,1045.101807 
	C858.653625,1038.504395 844.878418,1029.317505 833.374573,1016.836914 
	C820.044434,1002.374634 812.200378,985.195496 807.886841,966.074951 
	C804.876770,952.732239 804.995544,939.316162 804.996643,925.834717 
	C805.003418,842.675964 805.020020,759.517212 804.928162,676.358521 
	C804.924377,672.964478 805.542664,670.375854 808.270020,668.163513 
	C817.769348,660.458374 827.197571,652.663757 836.566345,644.800049 
	C843.966675,638.588623 851.239441,632.225037 858.569946,625.930298 
	C860.981995,623.859070 863.397522,621.791870 866.660645,618.994995 
	C802.142029,618.994995 738.769653,618.994995 675.000000,618.994995 
	C675.000000,617.157104 675.000000,615.702148 675.000000,614.247253 
	C675.000000,567.085083 675.067505,519.922668 674.894653,472.761108 
	C674.877563,468.089661 676.164856,466.876373 680.790771,466.896393 
	C721.951355,467.074463 763.112976,467.000000 804.672485,467.000000 
	C804.672485,437.199860 804.672485,407.461060 804.672485,377.361450 
	C855.470154,377.361450 905.872803,377.361450 957.000000,377.361450 
	C957.000000,378.964722 957.000000,380.878601 957.000000,382.792511 
	C957.000000,534.278076 956.934021,685.763733 957.084961,837.249146 
	C957.103516,855.855408 961.136658,873.676453 973.255188,888.510681 
	C983.197937,900.681519 995.990051,908.803650 1011.542664,911.965271 
	C1032.060181,916.136169 1052.852295,913.114441 1074.000000,914.000000 
z"/>
<path fill="#FFFFFF" opacity="1.000000" stroke="none" 
	d="
M492.197388,377.002075 
	C542.305969,377.000244 591.931152,377.000244 642.000000,377.000244 
	C642.000000,379.289825 642.000000,381.239166 642.000000,383.188538 
	C642.000000,534.350586 641.918701,685.512756 642.115173,836.674561 
	C642.136780,853.303162 645.121643,869.507568 654.945557,883.721741 
	C666.584595,900.562134 682.464661,910.396240 702.722168,912.929077 
	C709.077332,913.723633 715.537292,913.913452 721.952026,913.954102 
	C741.765991,914.079773 761.581238,914.000000 781.697754,914.000000 
	C781.697754,960.924988 781.697754,1007.662781 781.697754,1054.771729 
	C780.396301,1054.843018 778.963013,1054.989868 777.529663,1054.990234 
	C718.198120,1055.001709 658.862305,1055.370972 599.538879,1054.675781 
	C588.165771,1054.542480 576.493958,1051.251343 565.574463,1047.586426 
	C547.908325,1041.657104 532.327515,1031.773193 519.485962,1017.987915 
	C505.616882,1003.099548 497.090118,985.571472 492.903717,965.676392 
	C490.410706,953.829041 489.958313,941.945068 489.967102,929.932312 
	C490.029022,845.268250 490.027924,760.604126 489.902649,675.940247 
	C489.897400,672.380554 491.035431,670.024719 493.582031,667.884766 
	C506.471252,657.054016 519.302490,646.154236 532.190430,635.321960 
	C538.381104,630.118652 544.651855,625.010742 551.863037,619.052734 
	C487.509369,619.052734 424.475830,619.052734 361.221893,619.052734 
	C361.221893,568.246521 361.221893,517.842468 361.221893,467.038452 
	C404.091736,467.038452 446.830902,467.038452 490.000000,467.038452 
	C490.000000,462.700073 490.000000,458.747162 490.000000,454.794220 
	C490.000000,430.294983 489.971161,405.795593 490.073212,381.296783 
	C490.079193,379.863586 491.142700,378.434753 492.197388,377.002075 
z"/>
<path fill="#FFFFFF" opacity="1.000000" stroke="none" 
	d="
M1427.000000,271.000061 
	C1427.000000,263.068451 1427.000000,255.636841 1427.000000,248.205231 
	C1426.512329,248.068283 1426.024658,247.931335 1425.536987,247.794388 
	C1413.619141,276.771301 1401.701294,305.748230 1389.670288,335.000000 
	C1388.106812,335.000000 1386.460449,334.999115 1384.814087,335.000183 
	C1375.288086,335.006226 1375.452881,334.940735 1372.000854,326.272766 
	C1363.411377,304.705109 1354.677368,283.194855 1345.951782,261.681702 
	C1344.199097,257.360504 1342.226074,253.128723 1339.205078,249.131348 
	C1339.205078,277.608582 1339.205078,306.085785 1339.205078,334.779297 
	C1334.247681,334.779297 1329.843506,334.779297 1325.218628,334.779297 
	C1325.218628,295.250549 1325.218628,255.854401 1325.218628,216.228973 
	C1330.933716,216.228973 1336.542236,216.228973 1342.443115,216.228973 
	C1355.557373,248.226929 1368.764160,280.450684 1381.970947,312.674438 
	C1382.405518,312.827454 1382.840088,312.980469 1383.274658,313.133484 
	C1385.511353,308.039612 1387.847534,302.986725 1389.966675,297.844421 
	C1397.349976,279.928314 1404.674194,261.987701 1411.987427,244.042816 
	C1415.370605,235.741653 1418.570068,227.363068 1422.124146,219.136749 
	C1422.709961,217.780807 1424.636597,216.251694 1426.047729,216.141891 
	C1430.825684,215.770111 1435.650513,216.000076 1440.726807,216.000076 
	C1440.726807,255.640747 1440.726807,295.036713 1440.726807,334.716644 
	C1436.377808,334.716644 1431.971924,334.716644 1427.000000,334.716644 
	C1427.000000,313.684418 1427.000000,292.592224 1427.000000,271.000061 
z"/>
<path fill="#FFFFFF" opacity="1.000000" stroke="none" 
	d="
M1214.000000,222.035919 
	C1214.000000,219.906281 1214.000000,218.256943 1214.000000,216.304321 
	C1243.582764,216.304321 1272.986084,216.304321 1302.695190,216.304321 
	C1302.695190,220.578964 1302.695190,224.985245 1302.695190,229.797424 
	C1290.748047,229.797424 1278.670776,229.797424 1266.201172,229.797424 
	C1266.201172,264.928375 1266.201172,299.665405 1266.201172,334.700500 
	C1261.074219,334.700500 1256.335083,334.700500 1251.195557,334.700500 
	C1251.195557,300.067261 1251.195557,265.329590 1251.195557,230.193451 
	C1238.736450,230.193451 1226.660156,230.193451 1214.000000,230.193451 
	C1214.000000,227.383865 1214.000000,224.950027 1214.000000,222.035919 
z"/>
</svg>